<?xml version="1.0" standalone="no"?>
<!DOCTYPE svg PUBLIC "-//W3C//DTD SVG 20010904//EN"
 "http://www.w3.org/TR/2001/REC-SVG-20010904/DTD/svg10.dtd">
<svg version="1.0" xmlns="http://www.w3.org/2000/svg"
 width="944.000000pt" height="944.000000pt" viewBox="0 0 944.000000 944.000000"
 preserveAspectRatio="xMidYMid meet">
<metadata>
Created by potrace 1.14, written by Peter Selinger 2001-2017
</metadata>
<g transform="translate(0.000000,944.000000) scale(0.100000,-0.100000)"
fill="#000000" stroke="none">
<path d="M3712 8398 c-59 -9 -140 -40 -187 -72 -43 -31 -125 -117 -125 -133 0
-7 -3 -13 -8 -13 -8 0 -21 -27 -48 -100 -15 -39 -17 -96 -19 -439 -2 -355 -3
-394 -18 -403 -25 -14 -200 -80 -214 -81 -7 0 -13 -4 -13 -9 0 -4 -7 -8 -15
-8 -14 0 -35 -9 -75 -32 -8 -4 -22 -11 -30 -14 -39 -15 -85 -40 -88 -46 -2 -5
-10 -8 -19 -8 -8 0 -45 -18 -83 -40 -38 -22 -73 -40 -79 -40 -6 0 -11 -4 -11
-9 0 -5 -8 -11 -17 -14 -19 -6 -74 -38 -83 -47 -3 -3 -27 -19 -55 -35 -27 -15
-52 -31 -55 -35 -3 -3 -41 -30 -85 -60 -44 -30 -94 -63 -110 -74 -199 -136
-544 -460 -742 -695 -12 -14 -29 -33 -36 -41 -7 -8 -27 -33 -43 -55 -16 -22
-34 -44 -40 -50 -15 -14 -108 -145 -124 -175 -7 -14 -16 -27 -20 -30 -18 -12
-167 -255 -227 -370 -19 -36 -38 -72 -43 -80 -5 -8 -21 -42 -36 -75 -14 -33
-35 -78 -45 -99 -11 -22 -19 -46 -19 -53 0 -7 -4 -13 -10 -13 -5 0 -10 -7 -10
-16 0 -8 -10 -36 -21 -62 -12 -25 -22 -51 -24 -57 -1 -5 -7 -21 -12 -35 -16
-38 -84 -233 -88 -250 -2 -8 -13 -49 -25 -90 -11 -41 -23 -82 -25 -90 -2 -8
-11 -44 -20 -80 -9 -36 -18 -74 -19 -85 -2 -11 -9 -45 -15 -75 -7 -30 -14 -71
-16 -90 -3 -19 -7 -44 -9 -55 -5 -27 -19 -124 -22 -155 -1 -14 -5 -49 -8 -78
-3 -30 -8 -97 -12 -150 -3 -52 -7 -99 -10 -104 -3 -4 0 -8 6 -8 7 0 8 -6 2
-17 -4 -10 -8 -352 -8 -760 l1 -743 -40 -1 c-22 0 -126 0 -230 -1 l-190 0 0
-456 c-1 -252 2 -459 6 -462 4 -3 2079 -5 4611 -5 l4603 0 0 460 0 460 -222 1
c-123 0 -226 3 -229 7 -3 3 -8 378 -9 834 -2 455 -6 846 -8 868 -2 22 -8 69
-11 105 -11 103 -24 199 -32 245 -2 11 -7 34 -9 50 -7 36 -33 171 -39 202 -3
12 -16 66 -31 120 -15 54 -28 105 -30 113 -6 26 -85 264 -95 285 -5 11 -19 45
-31 75 -22 57 -25 65 -82 190 -58 128 -81 175 -86 180 -3 3 -17 28 -31 55 -14
28 -46 85 -72 128 -27 43 -48 83 -48 88 0 5 -4 9 -10 9 -5 0 -10 6 -10 14 0 8
-4 16 -9 18 -5 2 -17 17 -27 35 -64 109 -254 359 -382 502 -144 161 -405 412
-511 491 -19 14 -39 30 -46 37 -19 19 -228 169 -255 183 -14 7 -27 16 -30 19
-29 38 -415 251 -570 316 -36 15 -83 35 -105 45 -22 9 -77 32 -122 50 l-83 33
0 373 c0 238 -4 392 -11 426 -33 155 -177 311 -319 343 -19 5 -42 10 -50 13
-28 7 -1945 7 -1998 0z m1434 -917 l21 -1 1 -2052 c0 -1129 1 -2063 1 -2075
l1 -22 460 0 460 1 0 1454 c0 800 3 1454 8 1454 10 0 204 -100 222 -115 8 -6
23 -15 32 -18 19 -7 204 -125 234 -150 10 -9 37 -30 59 -47 22 -18 62 -50 90
-73 57 -47 435 -421 435 -431 0 -3 8 -14 18 -24 9 -10 31 -35 47 -56 17 -21
36 -45 43 -52 6 -7 12 -17 12 -22 0 -6 4 -12 8 -14 5 -1 28 -32 53 -68 24 -35
49 -70 56 -77 6 -7 15 -22 18 -33 3 -11 11 -20 16 -20 5 0 9 -4 9 -9 0 -4 23
-48 51 -97 68 -118 192 -382 204 -434 2 -8 10 -31 19 -51 13 -32 83 -251 91
-289 2 -8 9 -37 15 -65 7 -27 14 -60 15 -72 2 -12 5 -26 8 -30 3 -5 8 -28 12
-53 4 -25 8 -47 10 -51 7 -10 38 -233 51 -364 7 -60 10 -1565 4 -1573 -3 -4
-1455 -7 -3227 -7 -3216 0 -3223 0 -3224 20 0 11 0 344 0 740 0 780 2 874 26
1035 2 14 6 45 9 70 3 25 8 56 11 70 2 13 7 42 11 64 3 22 7 43 9 46 2 3 6 21
9 40 14 91 105 382 157 505 7 17 13 32 14 35 19 54 123 266 177 359 26 46 48
85 48 87 0 2 30 47 67 101 37 54 77 114 90 133 14 19 27 37 31 40 4 3 22 25
41 50 89 116 264 299 390 410 35 30 80 70 100 87 20 18 44 35 54 39 9 3 17 9
17 14 0 4 21 22 48 38 26 17 56 39 67 49 11 10 43 32 70 47 28 16 52 32 55 36
3 3 32 21 65 40 33 18 74 41 90 50 91 51 177 92 182 86 4 -3 7 -658 7 -1454
l1 -1447 460 0 460 0 0 2072 c0 2065 0 2072 20 2075 17 3 819 1 881 -1z"/>
</g>
</svg>
