<svg width="58" height="58" viewBox="0 0 58 58" fill="none" xmlns="http://www.w3.org/2000/svg">
<path d="M56.1103 11.9819L30.1675 0.451758C29.7986 0.287827 29.3995 0.203125 28.9958 0.203125C28.5921 0.203125 28.1929 0.287827 27.824 0.451758L1.88122 11.9819C1.82357 12.0078 1.78321 12.0511 1.72556 12.0828C1.64485 12.1231 1.55837 12.1491 1.48343 12.1981C1.42001 12.2413 1.37101 12.2961 1.31048 12.3422C1.09977 12.4988 0.91496 12.6875 0.762794 12.9014C0.705144 12.9821 0.64461 13.0542 0.592725 13.1349C0.506931 13.2873 0.433666 13.4463 0.373652 13.6105C0.347709 13.6884 0.307354 13.7604 0.284294 13.8382C0.2119 14.0914 0.174085 14.3532 0.171875 14.6165V43.4419C0.171875 44.5834 0.840623 45.6124 1.8841 46.0765L27.8269 57.6067C28.2016 57.7738 28.5994 57.8546 28.9972 57.8546C29.3986 57.8443 29.7933 57.75 30.156 57.5778L30.1675 57.6067L56.1103 46.0765C56.6203 45.8504 57.0535 45.481 57.3575 45.0133C57.6614 44.5456 57.823 43.9997 57.8226 43.4419V14.6165C57.823 14.0587 57.6614 13.5128 57.3575 13.0451C57.0535 12.5774 56.6203 12.208 56.1103 11.9819V11.9819ZM28.9972 6.24277L47.8432 14.6165L28.9972 22.9903L25.2269 21.3155L10.1541 14.6165L28.9972 6.24277ZM5.93694 41.5711V19.0528L26.1147 28.0203V50.5358L5.93694 41.5711ZM31.8798 50.5358V28.0203L52.0575 19.0528V41.5711L31.8798 50.5358Z" fill="#E88E42"/>
</svg>
