<svg width="59" height="48" viewBox="0 0 59 48" fill="none" xmlns="http://www.w3.org/2000/svg">
<path d="M55.36 32.6766C55.3615 30.9245 55.1877 29.1767 54.8411 27.4592C54.5023 25.7868 53.9903 24.1542 53.3134 22.5878C52.6714 21.0657 51.8694 19.6163 50.9209 18.264C49.9932 16.8844 48.931 15.6002 47.7501 14.4302C46.5635 13.2075 45.2492 12.1155 43.8298 11.1729C42.4502 10.2189 40.9715 9.41678 39.4195 8.78042L38.0647 8.23274V3.85128C38.0647 3.08679 37.7611 2.35361 37.2205 1.81303C36.6799 1.27245 35.9467 0.96875 35.1822 0.96875H23.6521C22.8876 0.96875 22.1544 1.27245 21.6138 1.81303C21.0732 2.35361 20.7695 3.08679 20.7695 3.85128V8.23274L19.3283 8.78042C17.8062 9.42234 16.3568 10.2243 15.0045 11.1729C13.6195 12.0932 12.3345 13.156 11.1707 14.3437C9.94797 15.5303 8.85597 16.8446 7.91344 18.264C6.95945 19.6436 6.1573 21.1223 5.52093 22.6742C4.85275 24.2439 4.34103 25.8756 3.99319 27.5457C3.65231 29.2349 3.47852 30.9534 3.47433 32.6766V41.3242H0.591797V47.0893H58.2425V41.3242H55.36V32.6766ZM9.2394 32.6766C9.24235 31.312 9.3775 29.9508 9.64296 28.6123C9.90539 27.3161 10.3015 26.0506 10.8248 24.8361C11.3301 23.6371 11.9478 22.4885 12.6696 21.4059C14.1327 19.2506 15.9911 17.3922 18.1464 15.9291C18.9848 15.3774 19.8614 14.8861 20.7695 14.459V32.6766H26.5346V6.73382H32.2997V32.6766H38.0647V14.459C38.9697 14.8924 39.8459 15.3834 40.6879 15.9291C41.7236 16.6641 42.6887 17.494 43.5704 18.4081C44.4831 19.283 45.3041 20.2488 46.0205 21.2906C46.7727 22.3596 47.4013 23.5103 47.8942 24.7208C48.4087 25.9386 48.8044 27.2032 49.076 28.497C49.3878 29.8694 49.5616 31.2696 49.5949 32.6766V41.3242H9.2394V32.6766Z" fill="#E88E42"/>
</svg>
