<svg width="49" height="50" viewBox="0 0 49 50" fill="none" xmlns="http://www.w3.org/2000/svg">
<path d="M6.76963 47.6271C7.71269 48.5702 8.96511 49.0891 10.2974 49.0891C11.6296 49.0891 12.8821 48.5702 13.8251 47.6271L24.6429 36.8094C26.4345 37.362 28.299 37.6421 30.174 37.6401C32.6315 37.6477 35.066 37.1675 37.3366 36.2275C39.6072 35.2875 41.6687 33.9063 43.4018 32.1639C46.0181 29.5549 47.8015 26.2283 48.5263 22.6053C49.2511 18.9822 48.8847 15.2255 47.4734 11.8108L46.0513 8.34791L35.4631 18.9336L30.1715 13.6395L40.7572 3.05381L37.2918 1.62924C35.0309 0.69849 32.609 0.22124 30.164 0.224627C25.1668 0.224627 20.4689 2.17062 16.9387 5.70336C14.5261 8.10794 12.8178 11.127 11.9989 14.4334C11.18 17.7397 11.2818 21.2072 12.2933 24.4598L1.47552 35.2775C0.540699 36.2135 0.015625 37.4824 0.015625 38.8053C0.015625 40.1282 0.540699 41.397 1.47552 42.333L6.76963 47.6271ZM18.1163 25.6947L17.4826 24.1579C16.4464 21.6539 16.1768 18.8987 16.708 16.2414C17.2392 13.5841 18.5473 11.1443 20.4664 9.2311C21.8927 7.79559 23.6208 6.69586 25.5253 6.01185C27.4297 5.32783 29.4626 5.07671 31.4763 5.27673L23.111 13.642L35.4581 25.9916L43.8284 17.6213C44.0236 19.6362 43.7697 21.6693 43.0851 23.5743C42.4005 25.4794 41.3021 27.209 39.869 28.6387C36.002 32.5057 29.9794 33.6958 24.9397 31.6225L23.4054 30.9863L10.2974 44.0994H10.2999L10.2974 46.5942V44.0994L5.00326 38.8053L18.1163 25.6947V25.6947Z" fill="#E88E42"/>
</svg>
